<svg xmlns="http://www.w3.org/2000/svg" viewBox="0 0 512 512" role="img" aria-label="FS Comp">
  <defs>
    <radialGradient id="bg" cx="50%" cy="35%" r="70%">
      <stop offset="0%" stop-color="#104d8d"/>
      <stop offset="58%" stop-color="#082b55"/>
      <stop offset="100%" stop-color="#031529"/>
    </radialGradient>
    <linearGradient id="metal" x1="120" y1="80" x2="390" y2="430" gradientUnits="userSpaceOnUse">
      <stop offset="0%" stop-color="#ffffff"/>
      <stop offset="42%" stop-color="#dbeafe"/>
      <stop offset="100%" stop-color="#94a3b8"/>
    </linearGradient>
    <linearGradient id="blue" x1="90" y1="60" x2="430" y2="450" gradientUnits="userSpaceOnUse">
      <stop offset="0%" stop-color="#7dd3fc"/>
      <stop offset="100%" stop-color="#2563eb"/>
    </linearGradient>
    <filter id="glow" x="-40%" y="-40%" width="180%" height="180%">
      <feGaussianBlur stdDeviation="10" result="blur"/>
      <feMerge>
        <feMergeNode in="blur"/>
        <feMergeNode in="SourceGraphic"/>
      </feMerge>
    </filter>
  </defs>
  <rect width="512" height="512" rx="116" fill="url(#bg)"/>
  <circle cx="256" cy="256" r="178" fill="none" stroke="url(#blue)" stroke-width="18" opacity="0.95" filter="url(#glow)"/>
  <circle cx="256" cy="256" r="143" fill="rgba(255,255,255,0.035)" stroke="rgba(255,255,255,0.18)" stroke-width="2"/>
  <path d="M166 152h194v52H225v58h112v50H225v101h-59V152Z" fill="url(#metal)"/>
  <path d="M354 198c-28-16-61-22-89-14-20 6-31 17-31 31 0 18 19 25 56 34 57 14 91 34 91 82 0 55-45 88-112 88-46 0-86-12-119-37l28-46c30 21 61 32 95 32 30 0 48-11 48-30 0-18-18-25-58-35-58-14-87-37-87-81 0-51 42-85 105-85 39 0 75 10 104 28l-31 33Z" fill="url(#metal)" opacity="0.98"/>
  <path d="M160 126h206" stroke="#7dd3fc" stroke-width="10" stroke-linecap="round" opacity="0.9"/>
</svg>
